<?xml version="1.0" standalone="no"?>
<!DOCTYPE svg PUBLIC "-//W3C//DTD SVG 20010904//EN"
 "http://www.w3.org/TR/2001/REC-SVG-20010904/DTD/svg10.dtd">
<svg version="1.0" xmlns="http://www.w3.org/2000/svg"
 width="400.000000pt" height="400.000000pt" viewBox="0 0 400.000000 400.000000"
 preserveAspectRatio="xMidYMid meet">

<g transform="translate(0.000000,400.000000) scale(0.100000,-0.100000)"
fill="#000000" stroke="none">
<path d="M1835 3240 c-63 -13 -125 -38 -176 -71 -53 -34 -124 -106 -141 -144
-6 -14 -15 -24 -19 -23 -4 2 -23 26 -41 53 -43 63 -123 119 -208 147 -58 19
-94 22 -317 26 l-253 4 0 -441 0 -441 223 0 c244 0 318 10 410 55 60 30 116
80 155 138 13 20 26 37 27 37 2 0 14 -19 28 -43 14 -23 34 -51 46 -61 30 -28
26 -36 -19 -36 l-40 0 0 -299 c0 -274 2 -304 21 -366 26 -86 85 -151 169 -189
33 -15 60 -31 60 -35 0 -4 -52 -144 -115 -311 -63 -166 -115 -304 -115 -306 0
-2 -90 -4 -200 -4 l-200 0 0 345 0 345 -110 0 -110 0 0 -440 0 -440 384 0 383
0 30 83 29 82 181 3 181 2 28 -82 29 -83 119 -3 118 -3 -4 24 -5 24 53 -24
c89 -41 184 -55 324 -50 97 3 138 9 184 27 118 45 172 125 170 255 -1 172
-107 248 -394 285 -165 20 -209 44 -194 104 23 93 283 82 401 -18 l30 -25 67
68 67 68 -36 31 c-19 18 -53 41 -75 52 l-40 20 52 44 53 43 18 -54 19 -54 56
3 57 3 0 255 0 255 -197 3 -198 2 0 -90 0 -90 96 0 c84 0 95 -2 90 -16 -3 -9
-6 -20 -6 -24 0 -21 -68 -85 -108 -102 -51 -23 -147 -26 -210 -8 -23 7 -60 28
-81 46 -53 46 -73 100 -73 203 0 111 33 180 106 226 46 28 56 30 145 30 87 0
100 -3 144 -28 26 -16 53 -37 60 -48 6 -10 16 -19 21 -19 14 0 176 104 176
114 0 15 -52 71 -98 104 -91 64 -259 95 -402 73 -97 -15 -206 -66 -265 -125
l-45 -45 0 79 0 80 -50 0 -49 0 48 64 c60 79 91 159 98 253 19 239 -124 428
-362 478 -76 16 -138 17 -200 5z m222 -226 c69 -43 103 -112 103 -211 0 -92
-14 -141 -52 -188 -46 -55 -100 -79 -183 -79 -102 0 -165 37 -211 124 -29 55
-27 209 4 272 41 82 116 121 225 114 53 -3 78 -10 114 -32z m-904 15 c91 -25
142 -111 142 -239 0 -86 -15 -137 -53 -182 -45 -53 -92 -68 -224 -68 l-118 0
0 243 c0 134 3 247 7 250 10 11 204 8 246 -4z m956 -1181 c-15 -57 -46 -84
-113 -98 -112 -23 -214 8 -242 75 -21 51 -21 540 0 532 77 -30 242 -31 323 -3
l38 13 3 -239 c1 -150 -2 -255 -9 -280z m263 -148 c20 -25 54 -56 77 -70 22
-14 41 -27 41 -30 0 -3 -20 -13 -45 -23 -49 -21 -100 -72 -121 -123 -18 -43
-18 -165 0 -207 16 -39 69 -93 116 -117 49 -25 101 -38 261 -65 164 -27 191
-40 187 -92 -2 -26 -11 -42 -31 -57 -25 -18 -42 -21 -135 -20 -125 0 -192 21
-261 80 l-42 37 -44 -43 c-24 -24 -45 -37 -49 -32 -10 16 -237 615 -234 617 2
1 28 13 58 27 71 32 121 75 151 132 13 25 26 42 29 38 3 -4 22 -27 42 -52z
m-393 -458 c28 -78 51 -147 51 -152 0 -6 -48 -10 -116 -10 -95 0 -115 3 -111
14 3 8 29 80 58 160 29 81 55 143 59 139 4 -4 30 -72 59 -151z"/>
</g>
</svg>
